<svg version="1.1" xmlns="http://www.w3.org/2000/svg" viewBox="0 0 1000 1000" enable-background="new 0 0 1000 1000" preserveAspectRatio="xMinYMin slice"><path d="M-156.7050983124842 -223.60679774997897 L-292.5084971874737 3.3932022500210337 L-126.90169943749474 -74.60679774997897 Z" fill="#eeeeee" shape-rendering="geometricPrecision"></path><path d="M-156.7050983124842 -223.60679774997897 L-126.90169943749474 -74.60679774997897 L-85.09830056250526 -346.60679774997897 Z" fill="#f8f8f8" shape-rendering="geometricPrecision"></path><path d="M-85.09830056250526 -346.60679774997897 L-126.90169943749474 -74.60679774997897 L192.7050983124842 -120.60679774997897 Z" fill="#fdfdfd" shape-rendering="geometricPrecision"></path><path d="M-85.09830056250526 -346.60679774997897 L192.7050983124842 -120.60679774997897 L200.50849718747372 -343.60679774997897 Z" fill="#f9f9f9" shape-rendering="geometricPrecision"></path><path d="M200.50849718747372 -343.60679774997897 L192.7050983124842 -120.60679774997897 L460.31189606246306 14.393202250021034 Z" fill="#ebebeb" shape-rendering="geometricPrecision"></path><path d="M200.50849718747372 -343.60679774997897 L460.31189606246306 14.393202250021034 L460.11529493745263 -368.60679774997897 Z" fill="#f6f6f6" shape-rendering="geometricPrecision"></path><path d="M460.11529493745263 -368.60679774997897 L460.31189606246306 14.393202250021034 L596.9186938124421 63.393202250021034 Z" fill="#f4f4f4" shape-rendering="geometricPrecision"></path><path d="M460.11529493745263 -368.60679774997897 L596.9186938124421 63.393202250021034 L726.7220926874315 -261.60679774997897 Z" fill="#f7f7f7" shape-rendering="geometricPrecision"></path><path d="M726.7220926874315 -261.60679774997897 L596.9186938124421 63.393202250021034 L736.5254915624212 -155.60679774997897 Z" fill="#f3f3f3" shape-rendering="geometricPrecision"></path><path d="M726.7220926874315 -261.60679774997897 L736.5254915624212 -155.60679774997897 L1048.3288904374106 -288.60679774997897 Z" fill="#ebebeb" shape-rendering="geometricPrecision"></path><path d="M1048.3288904374106 -288.60679774997897 L736.5254915624212 -155.60679774997897 L1183.1322893124 -6.606797749978966 Z" fill="#efefef" shape-rendering="geometricPrecision"></path><path d="M1048.3288904374106 -288.60679774997897 L1183.1322893124 -6.606797749978966 L1290.9356881873894 -242.60679774997897 Z" fill="#f5f5f5" shape-rendering="geometricPrecision"></path><path d="M1290.9356881873894 -242.60679774997897 L1183.1322893124 -6.606797749978966 L1429.739087062379 -14.606797749978966 Z" fill="#efefef" shape-rendering="geometricPrecision"></path><path d="M1290.9356881873894 -242.60679774997897 L1429.739087062379 -14.606797749978966 L1487.5424859373684 -277.60679774997897 Z" fill="#f2f2f2" shape-rendering="geometricPrecision"></path><path d="M1487.5424859373684 -277.60679774997897 L1429.739087062379 -14.606797749978966 L1579.345884812358 -118.60679774997897 Z" fill="#fcfcfc" shape-rendering="geometricPrecision"></path><path d="M-292.5084971874737 3.3932022500210337 L-128.7050983124842 106.39320225002103 L-126.90169943749474 -74.60679774997897 Z" fill="#ededed" shape-rendering="geometricPrecision"></path><path d="M-126.90169943749474 -74.60679774997897 L-128.7050983124842 106.39320225002103 L97.90169943749474 78.39320225002103 Z" fill="#fefefe" shape-rendering="geometricPrecision"></path><path d="M-126.90169943749474 -74.60679774997897 L97.90169943749474 78.39320225002103 L192.7050983124842 -120.60679774997897 Z" fill="#eeeeee" shape-rendering="geometricPrecision"></path><path d="M192.7050983124842 -120.60679774997897 L97.90169943749474 78.39320225002103 L372.5084971874737 167.39320225002103 Z" fill="#f9f9f9" shape-rendering="geometricPrecision"></path><path d="M192.7050983124842 -120.60679774997897 L372.5084971874737 167.39320225002103 L460.31189606246306 14.393202250021034 Z" fill="#fdfdfd" shape-rendering="geometricPrecision"></path><path d="M460.31189606246306 14.393202250021034 L372.5084971874737 167.39320225002103 L362.11529493745263 236.39320225002103 Z" fill="#f9f9f9" shape-rendering="geometricPrecision"></path><path d="M460.31189606246306 14.393202250021034 L362.11529493745263 236.39320225002103 L596.9186938124421 63.393202250021034 Z" fill="#f8f8f8" shape-rendering="geometricPrecision"></path><path d="M596.9186938124421 63.393202250021034 L362.11529493745263 236.39320225002103 L773.7220926874315 79.39320225002103 Z" fill="#eeeeee" shape-rendering="geometricPrecision"></path><path d="M596.9186938124421 63.393202250021034 L773.7220926874315 79.39320225002103 L736.5254915624212 -155.60679774997897 Z" fill="#fafafa" shape-rendering="geometricPrecision"></path><path d="M736.5254915624212 -155.60679774997897 L773.7220926874315 79.39320225002103 L873.3288904374106 45.393202250021034 Z" fill="#efefef" shape-rendering="geometricPrecision"></path><path d="M736.5254915624212 -155.60679774997897 L873.3288904374106 45.393202250021034 L1183.1322893124 -6.606797749978966 Z" fill="#eeeeee" shape-rendering="geometricPrecision"></path><path d="M1183.1322893124 -6.606797749978966 L873.3288904374106 45.393202250021034 L1264.9356881873894 280.39320225002103 Z" fill="#fefefe" shape-rendering="geometricPrecision"></path><path d="M1183.1322893124 -6.606797749978966 L1264.9356881873894 280.39320225002103 L1429.739087062379 -14.606797749978966 Z" fill="#f6f6f6" shape-rendering="geometricPrecision"></path><path d="M1429.739087062379 -14.606797749978966 L1264.9356881873894 280.39320225002103 L1283.5424859373684 35.393202250021034 Z" fill="#ebebeb" shape-rendering="geometricPrecision"></path><path d="M1429.739087062379 -14.606797749978966 L1283.5424859373684 35.393202250021034 L1579.345884812358 -118.60679774997897 Z" fill="#fcfcfc" shape-rendering="geometricPrecision"></path><path d="M-128.7050983124842 106.39320225002103 L-288.5084971874737 371.39320225002103 L-163.90169943749476 477.39320225002103 Z" fill="#f3f3f3" shape-rendering="geometricPrecision"></path><path d="M-128.7050983124842 106.39320225002103 L-163.90169943749476 477.39320225002103 L97.90169943749474 78.39320225002103 Z" fill="#f8f8f8" shape-rendering="geometricPrecision"></path><path d="M97.90169943749474 78.39320225002103 L-163.90169943749476 477.39320225002103 L111.70509831248422 288.39320225002103 Z" fill="#f9f9f9" shape-rendering="geometricPrecision"></path><path d="M97.90169943749474 78.39320225002103 L111.70509831248422 288.39320225002103 L372.5084971874737 167.39320225002103 Z" fill="#f0f0f0" shape-rendering="geometricPrecision"></path><path d="M372.5084971874737 167.39320225002103 L111.70509831248422 288.39320225002103 L305.3118960624631 355.39320225002103 Z" fill="#ededed" shape-rendering="geometricPrecision"></path><path d="M372.5084971874737 167.39320225002103 L305.3118960624631 355.39320225002103 L362.11529493745263 236.39320225002103 Z" fill="#f1f1f1" shape-rendering="geometricPrecision"></path><path d="M362.11529493745263 236.39320225002103 L305.3118960624631 355.39320225002103 L541.9186938124421 400.39320225002103 Z" fill="#f9f9f9" shape-rendering="geometricPrecision"></path><path d="M362.11529493745263 236.39320225002103 L541.9186938124421 400.39320225002103 L773.7220926874315 79.39320225002103 Z" fill="#eeeeee" shape-rendering="geometricPrecision"></path><path d="M773.7220926874315 79.39320225002103 L541.9186938124421 400.39320225002103 L862.5254915624212 374.39320225002103 Z" fill="#f7f7f7" shape-rendering="geometricPrecision"></path><path d="M773.7220926874315 79.39320225002103 L862.5254915624212 374.39320225002103 L873.3288904374106 45.393202250021034 Z" fill="#fefefe" shape-rendering="geometricPrecision"></path><path d="M873.3288904374106 45.393202250021034 L862.5254915624212 374.39320225002103 L1176.1322893124 458.39320225002103 Z" fill="#f9f9f9" shape-rendering="geometricPrecision"></path><path d="M873.3288904374106 45.393202250021034 L1176.1322893124 458.39320225002103 L1264.9356881873894 280.39320225002103 Z" fill="#ededed" shape-rendering="geometricPrecision"></path><path d="M1264.9356881873894 280.39320225002103 L1176.1322893124 458.39320225002103 L1326.739087062379 349.39320225002103 Z" fill="#f1f1f1" shape-rendering="geometricPrecision"></path><path d="M1264.9356881873894 280.39320225002103 L1326.739087062379 349.39320225002103 L1283.5424859373684 35.393202250021034 Z" fill="#fafafa" shape-rendering="geometricPrecision"></path><path d="M1283.5424859373684 35.393202250021034 L1326.739087062379 349.39320225002103 L1585.345884812358 253.39320225002103 Z" fill="#f5f5f5" shape-rendering="geometricPrecision"></path><path d="M-288.5084971874737 371.39320225002103 L-210.7050983124842 475.39320225002103 L-163.90169943749476 477.39320225002103 Z" fill="#f7f7f7" shape-rendering="geometricPrecision"></path><path d="M-163.90169943749476 477.39320225002103 L-210.7050983124842 475.39320225002103 L75.90169943749474 430.39320225002103 Z" fill="#ededed" shape-rendering="geometricPrecision"></path><path d="M-163.90169943749476 477.39320225002103 L75.90169943749474 430.39320225002103 L111.70509831248422 288.39320225002103 Z" fill="#eeeeee" shape-rendering="geometricPrecision"></path><path d="M111.70509831248422 288.39320225002103 L75.90169943749474 430.39320225002103 L342.5084971874737 566.393202250021 Z" fill="#efefef" shape-rendering="geometricPrecision"></path><path d="M111.70509831248422 288.39320225002103 L342.5084971874737 566.393202250021 L305.3118960624631 355.39320225002103 Z" fill="#fafafa" shape-rendering="geometricPrecision"></path><path d="M305.3118960624631 355.39320225002103 L342.5084971874737 566.393202250021 L602.1152949374525 608.393202250021 Z" fill="#efefef" shape-rendering="geometricPrecision"></path><path d="M305.3118960624631 355.39320225002103 L602.1152949374525 608.393202250021 L541.9186938124421 400.39320225002103 Z" fill="#f3f3f3" shape-rendering="geometricPrecision"></path><path d="M541.9186938124421 400.39320225002103 L602.1152949374525 608.393202250021 L852.7220926874315 512.393202250021 Z" fill="#f9f9f9" shape-rendering="geometricPrecision"></path><path d="M541.9186938124421 400.39320225002103 L852.7220926874315 512.393202250021 L862.5254915624212 374.39320225002103 Z" fill="#fefefe" shape-rendering="geometricPrecision"></path><path d="M862.5254915624212 374.39320225002103 L852.7220926874315 512.393202250021 L835.3288904374106 576.393202250021 Z" fill="#f4f4f4" shape-rendering="geometricPrecision"></path><path d="M862.5254915624212 374.39320225002103 L835.3288904374106 576.393202250021 L1176.1322893124 458.39320225002103 Z" fill="#f8f8f8" shape-rendering="geometricPrecision"></path><path d="M1176.1322893124 458.39320225002103 L835.3288904374106 576.393202250021 L1262.9356881873894 697.393202250021 Z" fill="#f5f5f5" shape-rendering="geometricPrecision"></path><path d="M1176.1322893124 458.39320225002103 L1262.9356881873894 697.393202250021 L1326.739087062379 349.39320225002103 Z" fill="#eeeeee" shape-rendering="geometricPrecision"></path><path d="M1326.739087062379 349.39320225002103 L1262.9356881873894 697.393202250021 L1515.5424859373684 657.393202250021 Z" fill="#fbfbfb" shape-rendering="geometricPrecision"></path><path d="M1326.739087062379 349.39320225002103 L1515.5424859373684 657.393202250021 L1585.345884812358 253.39320225002103 Z" fill="#f2f2f2" shape-rendering="geometricPrecision"></path><path d="M-210.7050983124842 475.39320225002103 L-215.50849718747372 908.393202250021 L69.09830056250526 867.393202250021 Z" fill="#f2f2f2" shape-rendering="geometricPrecision"></path><path d="M-210.7050983124842 475.39320225002103 L69.09830056250526 867.393202250021 L75.90169943749474 430.39320225002103 Z" fill="#fcfcfc" shape-rendering="geometricPrecision"></path><path d="M75.90169943749474 430.39320225002103 L69.09830056250526 867.393202250021 L292.7050983124842 634.393202250021 Z" fill="#fbfbfb" shape-rendering="geometricPrecision"></path><path d="M75.90169943749474 430.39320225002103 L292.7050983124842 634.393202250021 L342.5084971874737 566.393202250021 Z" fill="#f0f0f0" shape-rendering="geometricPrecision"></path><path d="M342.5084971874737 566.393202250021 L292.7050983124842 634.393202250021 L340.3118960624631 717.393202250021 Z" fill="#fcfcfc" shape-rendering="geometricPrecision"></path><path d="M342.5084971874737 566.393202250021 L340.3118960624631 717.393202250021 L602.1152949374525 608.393202250021 Z" fill="#fdfdfd" shape-rendering="geometricPrecision"></path><path d="M602.1152949374525 608.393202250021 L340.3118960624631 717.393202250021 L528.9186938124421 741.393202250021 Z" fill="#ececec" shape-rendering="geometricPrecision"></path><path d="M602.1152949374525 608.393202250021 L528.9186938124421 741.393202250021 L852.7220926874315 512.393202250021 Z" fill="#f1f1f1" shape-rendering="geometricPrecision"></path><path d="M852.7220926874315 512.393202250021 L528.9186938124421 741.393202250021 L963.5254915624212 834.393202250021 Z" fill="#efefef" shape-rendering="geometricPrecision"></path><path d="M852.7220926874315 512.393202250021 L963.5254915624212 834.393202250021 L835.3288904374106 576.393202250021 Z" fill="#efefef" shape-rendering="geometricPrecision"></path><path d="M835.3288904374106 576.393202250021 L963.5254915624212 834.393202250021 L1008.1322893124 827.393202250021 Z" fill="#eeeeee" shape-rendering="geometricPrecision"></path><path d="M835.3288904374106 576.393202250021 L1008.1322893124 827.393202250021 L1262.9356881873894 697.393202250021 Z" fill="#f3f3f3" shape-rendering="geometricPrecision"></path><path d="M1262.9356881873894 697.393202250021 L1008.1322893124 827.393202250021 L1216.739087062379 707.393202250021 Z" fill="#fafafa" shape-rendering="geometricPrecision"></path><path d="M1262.9356881873894 697.393202250021 L1216.739087062379 707.393202250021 L1515.5424859373684 657.393202250021 Z" fill="#f5f5f5" shape-rendering="geometricPrecision"></path><path d="M1515.5424859373684 657.393202250021 L1216.739087062379 707.393202250021 L1403.345884812358 879.393202250021 Z" fill="#fafafa" shape-rendering="geometricPrecision"></path><path d="M-215.50849718747372 908.393202250021 L-126.70509831248422 1114.393202250021 L69.09830056250526 867.393202250021 Z" fill="#f5f5f5" shape-rendering="geometricPrecision"></path><path d="M69.09830056250526 867.393202250021 L-126.70509831248422 1114.393202250021 L58.90169943749474 966.393202250021 Z" fill="#f1f1f1" shape-rendering="geometricPrecision"></path><path d="M69.09830056250526 867.393202250021 L58.90169943749474 966.393202250021 L292.7050983124842 634.393202250021 Z" fill="#ebebeb" shape-rendering="geometricPrecision"></path><path d="M292.7050983124842 634.393202250021 L58.90169943749474 966.393202250021 L202.50849718747372 868.393202250021 Z" fill="#ededed" shape-rendering="geometricPrecision"></path><path d="M292.7050983124842 634.393202250021 L202.50849718747372 868.393202250021 L340.3118960624631 717.393202250021 Z" fill="#f3f3f3" shape-rendering="geometricPrecision"></path><path d="M340.3118960624631 717.393202250021 L202.50849718747372 868.393202250021 L576.1152949374525 1041.393202250021 Z" fill="#f5f5f5" shape-rendering="geometricPrecision"></path><path d="M340.3118960624631 717.393202250021 L576.1152949374525 1041.393202250021 L528.9186938124421 741.393202250021 Z" fill="#ececec" shape-rendering="geometricPrecision"></path><path d="M528.9186938124421 741.393202250021 L576.1152949374525 1041.393202250021 L855.7220926874315 1082.393202250021 Z" fill="#f2f2f2" shape-rendering="geometricPrecision"></path><path d="M528.9186938124421 741.393202250021 L855.7220926874315 1082.393202250021 L963.5254915624212 834.393202250021 Z" fill="#efefef" shape-rendering="geometricPrecision"></path><path d="M963.5254915624212 834.393202250021 L855.7220926874315 1082.393202250021 L898.3288904374106 841.393202250021 Z" fill="#f1f1f1" shape-rendering="geometricPrecision"></path><path d="M963.5254915624212 834.393202250021 L898.3288904374106 841.393202250021 L1008.1322893124 827.393202250021 Z" fill="#fcfcfc" shape-rendering="geometricPrecision"></path><path d="M1008.1322893124 827.393202250021 L898.3288904374106 841.393202250021 L1074.9356881873894 1071.393202250021 Z" fill="#ececec" shape-rendering="geometricPrecision"></path><path d="M1008.1322893124 827.393202250021 L1074.9356881873894 1071.393202250021 L1216.739087062379 707.393202250021 Z" fill="#fefefe" shape-rendering="geometricPrecision"></path><path d="M1216.739087062379 707.393202250021 L1074.9356881873894 1071.393202250021 L1279.5424859373684 933.393202250021 Z" fill="#fefefe" shape-rendering="geometricPrecision"></path><path d="M1216.739087062379 707.393202250021 L1279.5424859373684 933.393202250021 L1403.345884812358 879.393202250021 Z" fill="#fcfcfc" shape-rendering="geometricPrecision"></path></svg>