<svg xmlns="http://www.w3.org/2000/svg" xml:space="preserve" width="5.82677in" height="8.26772in" version="1.1" style="shape-rendering:geometricPrecision; text-rendering:geometricPrecision; image-rendering:optimizeQuality; fill-rule:evenodd; clip-rule:evenodd"
viewBox="0 0 5827 8268"
 xmlns:xlink="http://www.w3.org/1999/xlink">
 <defs>
  <style type="text/css">
   <![CDATA[
    .fil0 {fill:#FFFFFF}
   ]]>
  </style>
 </defs>
 <g id="Layer_x0020_1">
  <metadata id="CorelCorpID_0Corel-Layer"/>
  <g id="_2176365780384">
   <path class="fil0" d="M2242 6282l1343 0 0 -2148 -1343 0 0 2148zm265 -799l813 0 0 534 -813 0 0 -534z"/>
   <path class="fil0" d="M3853 6282l1342 0 0 -2148 -1342 0 0 2148zm265 -799l812 0 0 534 -812 0 0 -534z"/>
   <path class="fil0" d="M631 3865l4564 0 0 -805 -4564 0 0 805zm2217 -538l1883 0 0 271 -1883 0 0 -271z"/>
   <path class="fil0" d="M631 2792l4564 0 0 -806 -4564 0 0 806zm2217 -539l1883 0 0 271 -1883 0 0 -271z"/>
   <path class="fil0" d="M631 6282l1343 0 0 -2148 -1343 0 0 2148zm265 -799l813 0 0 534 -813 0 0 -534z"/>
  </g>
 </g>
</svg>
